<svg width="36" height="19" viewBox="0 0 36 19" fill="none" xmlns="http://www.w3.org/2000/svg">
<rect width="36" height="19" rx="8" fill="#E7462D"/>
<path d="M14.8359 13H13.6289V10.5352H11.3672V13H10.1562V7.28906H11.3672V9.52734H13.6289V7.28906H14.8359V13ZM21.4648 10.1367C21.4648 11.082 21.2305 11.8086 20.7617 12.3164C20.293 12.8242 19.6211 13.0781 18.7461 13.0781C17.8711 13.0781 17.1992 12.8242 16.7305 12.3164C16.2617 11.8086 16.0273 11.0794 16.0273 10.1289C16.0273 9.17839 16.2617 8.45312 16.7305 7.95312C17.2018 7.45052 17.8763 7.19922 18.7539 7.19922C19.6315 7.19922 20.3021 7.45182 20.7656 7.95703C21.2318 8.46224 21.4648 9.1888 21.4648 10.1367ZM17.2969 10.1367C17.2969 10.7747 17.418 11.2552 17.6602 11.5781C17.9023 11.901 18.2643 12.0625 18.7461 12.0625C19.7122 12.0625 20.1953 11.4206 20.1953 10.1367C20.1953 8.85026 19.7148 8.20703 18.7539 8.20703C18.2721 8.20703 17.9089 8.36979 17.6641 8.69531C17.4193 9.01823 17.2969 9.4987 17.2969 10.1367ZM24.8516 13H23.6406V8.29688H22.0898V7.28906H26.4023V8.29688H24.8516V13Z" fill="white"/>
</svg>
